<svg id="visual" viewBox="0 0 960 540" width="960" height="540" xmlns="http://www.w3.org/2000/svg" xmlns:xlink="http://www.w3.org/1999/xlink" version="1.1"><rect x="0" y="0" width="960" height="540" fill="#f3f6f4"></rect><path d="M666 0L460 0L460 34L509 34L509 68L643 68L643 101L466 101L466 135L676 135L676 169L609 169L609 203L624 203L624 236L595 236L595 270L718 270L718 304L563 304L563 338L483 338L483 371L477 371L477 405L699 405L699 439L517 439L517 473L690 473L690 506L503 506L503 540L0 540L0 506L0 506L0 473L0 473L0 439L0 439L0 405L0 405L0 371L0 371L0 338L0 338L0 304L0 304L0 270L0 270L0 236L0 236L0 203L0 203L0 169L0 169L0 135L0 135L0 101L0 101L0 68L0 68L0 34L0 34L0 0L0 0Z" fill="#009473"></path><path d="M575 0L633 0L633 34L426 34L426 68L428 68L428 101L518 101L518 135L613 135L613 169L527 169L527 203L422 203L422 236L493 236L493 270L512 270L512 304L474 304L474 338L608 338L608 371L567 371L567 405L501 405L501 439L539 439L539 473L461 473L461 506L522 506L522 540L0 540L0 506L0 506L0 473L0 473L0 439L0 439L0 405L0 405L0 371L0 371L0 338L0 338L0 304L0 304L0 270L0 270L0 236L0 236L0 203L0 203L0 169L0 169L0 135L0 135L0 101L0 101L0 68L0 68L0 34L0 34L0 0L0 0Z" fill="#038664"></path><path d="M407 0L364 0L364 34L430 34L430 68L510 68L510 101L501 101L501 135L529 135L529 169L528 169L528 203L445 203L445 236L388 236L388 270L379 270L379 304L435 304L435 338L435 338L435 371L386 371L386 405L535 405L535 439L527 439L527 473L342 473L342 506L347 506L347 540L0 540L0 506L0 506L0 473L0 473L0 439L0 439L0 405L0 405L0 371L0 371L0 338L0 338L0 304L0 304L0 270L0 270L0 236L0 236L0 203L0 203L0 169L0 169L0 135L0 135L0 101L0 101L0 68L0 68L0 34L0 34L0 0L0 0Z" fill="#057855"></path><path d="M344 0L336 0L336 34L333 34L333 68L358 68L358 101L279 101L279 135L398 135L398 169L283 169L283 203L397 203L397 236L300 236L300 270L357 270L357 304L264 304L264 338L358 338L358 371L382 371L382 405L329 405L329 439L438 439L438 473L370 473L370 506L367 506L367 540L0 540L0 506L0 506L0 473L0 473L0 439L0 439L0 405L0 405L0 371L0 371L0 338L0 338L0 304L0 304L0 270L0 270L0 236L0 236L0 203L0 203L0 169L0 169L0 135L0 135L0 101L0 101L0 68L0 68L0 34L0 34L0 0L0 0Z" fill="#056b47"></path><path d="M200 0L244 0L244 34L311 34L311 68L262 68L262 101L298 101L298 135L310 135L310 169L251 169L251 203L346 203L346 236L306 236L306 270L266 270L266 304L221 304L221 338L211 338L211 371L336 371L336 405L204 405L204 439L209 439L209 473L268 473L268 506L210 506L210 540L0 540L0 506L0 506L0 473L0 473L0 439L0 439L0 405L0 405L0 371L0 371L0 338L0 338L0 304L0 304L0 270L0 270L0 236L0 236L0 203L0 203L0 169L0 169L0 135L0 135L0 101L0 101L0 68L0 68L0 34L0 34L0 0L0 0Z" fill="#045e3a"></path><path d="M202 0L224 0L224 34L187 34L187 68L167 68L167 101L187 101L187 135L255 135L255 169L165 169L165 203L184 203L184 236L158 236L158 270L235 270L235 304L191 304L191 338L178 338L178 371L255 371L255 405L234 405L234 439L187 439L187 473L223 473L223 506L141 506L141 540L0 540L0 506L0 506L0 473L0 473L0 439L0 439L0 405L0 405L0 371L0 371L0 338L0 338L0 304L0 304L0 270L0 270L0 236L0 236L0 203L0 203L0 169L0 169L0 135L0 135L0 101L0 101L0 68L0 68L0 34L0 34L0 0L0 0Z" fill="#02512d"></path><path d="M118 0L69 0L69 34L76 34L76 68L78 68L78 101L72 101L72 135L140 135L140 169L157 169L157 203L124 203L124 236L152 236L152 270L131 270L131 304L78 304L78 338L95 338L95 371L60 371L60 405L114 405L114 439L152 439L152 473L145 473L145 506L79 506L79 540L0 540L0 506L0 506L0 473L0 473L0 439L0 439L0 405L0 405L0 371L0 371L0 338L0 338L0 304L0 304L0 270L0 270L0 236L0 236L0 203L0 203L0 169L0 169L0 135L0 135L0 101L0 101L0 68L0 68L0 34L0 34L0 0L0 0Z" fill="#004421"></path></svg>